ffmpeg version 7.1.3 Copyright (c) 2000-2025 the FFmpeg developers
  built with Apple clang version 16.0.0 (clang-1600.0.26.6)
  configuration: --prefix='/usr/local/Cellar/ffmpeg@7/7.1.3_1' --enable-shared --enable-pthreads --enable-version3 --cc=clang --host-cflags= --host-ldflags= --enable-ffplay --enable-gnutls --enable-gpl --enable-libaom --enable-libaribb24 --enable-libbluray --enable-libdav1d --enable-libharfbuzz --enable-libjxl --enable-libmp3lame --enable-libopus --enable-librav1e --enable-librist --enable-librubberband --enable-libsnappy --enable-libsrt --enable-libssh --enable-libsvtav1 --enable-libtesseract --enable-libtheora --enable-libvidstab --enable-libvmaf --enable-libvorbis --enable-libvpx --enable-libwebp --enable-libx264 --enable-libx265 --enable-libxml2 --enable-libxvid --enable-lzma --enable-libfontconfig --enable-libfreetype --enable-frei0r --enable-libass --enable-libopencore-amrnb --enable-libopencore-amrwb --enable-libopenjpeg --enable-libspeex --enable-libsoxr --enable-libzmq --enable-libzimg --disable-libjack --disable-indev=jack --enable-videotoolbox --enable-audiotoolbox
  libavutil      59. 39.100 / 59. 39.100
  libavcodec     61. 19.101 / 61. 19.101
  libavformat    61.  7.100 / 61.  7.100
  libavdevice    61.  3.100 / 61.  3.100
  libavfilter    10.  4.100 / 10.  4.100
  libswscale      8.  3.100 /  8.  3.100
  libswresample   5.  3.100 /  5.  3.100
  libpostproc    58.  3.100 / 58.  3.100
Input #0, rawvideo, from 'pipe:0':
  Duration: N/A, start: 0.000000, bitrate: 1990656 kb/s
  Stream #0:0: Video: rawvideo (RGBA / 0x41424752), rgba, 1920x1080, 1990656 kb/s, 30 tbr, 30 tbn
Stream mapping:
  Stream #0:0 -> #0:0 (rawvideo (native) -> h264 (libx264))
[libx264 @ 0x7fdc38706cc0] using cpu capabilities: MMX2 SSE2Fast SSSE3 SSE4.2 AVX FMA3 BMI2 AVX2
[libx264 @ 0x7fdc38706cc0] profile Constrained Baseline, level 4.0, 4:2:0, 8-bit
[libx264 @ 0x7fdc38706cc0] 264 - core 165 r3222 b35605a - H.264/MPEG-4 AVC codec - Copyleft 2003-2025 - http://www.videolan.org/x264.html - options: cabac=0 ref=1 deblock=0:0:0 analyse=0:0 me=dia subme=0 psy=1 psy_rd=1.00:0.00 mixed_ref=0 me_range=16 chroma_me=1 trellis=0 8x8dct=0 cqm=0 deadzone=21,11 fast_pskip=1 chroma_qp_offset=0 threads=12 lookahead_threads=2 sliced_threads=0 nr=0 decimate=1 interlaced=0 bluray_compat=0 constrained_intra=0 bframes=0 weightp=0 keyint=250 keyint_min=25 scenecut=0 intra_refresh=0 rc=crf mbtree=0 crf=23.0 qcomp=0.60 qpmin=0 qpmax=69 qpstep=4 ip_ratio=1.40 aq=0
Output #0, mp4, to '/Users/robin-hassan/Desktop/f2v2f/backend/outputs/5940da74-93c6-41be-b7e9-a423d743a019_README.mp4':
  Metadata:
    encoder         : Lavf61.7.100
  Stream #0:0: Video: h264 (avc1 / 0x31637661), yuv420p(tv, progressive), 1920x1080, q=2-31, 30 fps, 15360 tbn
      Metadata:
        encoder         : Lavc61.19.101 libx264
      Side data:
        cpb: bitrate max/min/avg: 0/0/0 buffer size: 0 vbv_delay: N/A
[mp4 @ 0x7fdc38705640] Starting second pass: moving the moov atom to the beginning of the file
[out#0/mp4 @ 0x7fdc39106780] video:464KiB audio:0KiB subtitle:0KiB other streams:0KiB global headers:0KiB muxing overhead: 0.177640%
frame=    2 fps=0.0 q=-1.0 Lsize=     465KiB time=00:00:00.06 bitrate=57115.3kbits/s speed=0.323x    
[libx264 @ 0x7fdc38706cc0] frame I:1     Avg QP:20.00  size:285372
[libx264 @ 0x7fdc38706cc0] frame P:1     Avg QP:26.00  size:189147
[libx264 @ 0x7fdc38706cc0] mb I  I16..4: 100.0%  0.0%  0.0%
[libx264 @ 0x7fdc38706cc0] mb P  I16..4: 97.5%  0.0%  0.0%  P16..4:  2.5%  0.0%  0.0%  0.0%  0.0%    skip: 0.0%
[libx264 @ 0x7fdc38706cc0] coded y,uvDC,uvAC intra: 93.6% 55.4% 25.4% inter: 92.7% 100.0% 0.0%
[libx264 @ 0x7fdc38706cc0] i16 v,h,dc,p:  6%  9% 57% 28%
[libx264 @ 0x7fdc38706cc0] i8c dc,h,v,p: 46% 27% 11% 16%
[libx264 @ 0x7fdc38706cc0] kb/s:56942.28
